<svg id="svg" xmlns="http://www.w3.org/2000/svg" xmlns:xlink="http://www.w3.org/1999/xlink" width="400" height="153.32629355860612" viewBox="0, 0, 400,153.32629355860612"><g id="svgg"><path id="path0" d="M264.932 8.664 C 263.706 8.962,262.471 9.391,262.186 9.617 C 261.901 9.842,260.910 10.164,259.982 10.332 C 259.055 10.499,258.104 10.757,257.870 10.904 C 257.636 11.051,256.974 11.236,256.399 11.315 C 255.824 11.394,255.159 11.615,254.921 11.806 C 254.683 11.997,253.633 12.292,252.587 12.460 C 251.542 12.629,250.496 12.912,250.264 13.088 C 250.032 13.265,248.943 13.540,247.845 13.699 C 246.747 13.858,245.738 14.167,245.603 14.386 C 245.467 14.604,244.985 14.784,244.531 14.784 C 244.077 14.784,243.375 14.964,242.972 15.184 C 241.904 15.767,235.132 18.354,234.636 18.368 C 234.241 18.380,231.736 19.450,230.122 20.297 C 229.730 20.503,227.449 20.983,225.053 21.365 C 222.657 21.746,219.747 22.217,218.585 22.411 C 217.423 22.604,213.919 23.064,210.797 23.431 C 207.675 23.799,204.729 24.194,204.250 24.309 C 203.771 24.425,202.524 24.608,201.478 24.718 C 196.949 25.191,195.565 25.453,195.565 25.837 C 195.565 26.061,195.186 26.125,194.724 25.978 C 194.261 25.831,193.648 25.856,193.361 26.034 C 193.074 26.211,192.074 26.418,191.140 26.493 C 190.205 26.568,188.585 26.892,187.540 27.212 C 186.494 27.532,184.976 27.933,184.167 28.102 C 183.357 28.272,182.312 28.660,181.844 28.965 C 181.376 29.270,180.232 29.710,179.303 29.942 C 178.374 30.174,176.948 30.556,176.135 30.791 C 175.322 31.027,173.598 31.487,172.305 31.815 C 171.011 32.143,169.491 32.667,168.926 32.979 C 168.361 33.291,167.647 33.494,167.339 33.431 C 167.032 33.369,166.556 33.497,166.283 33.716 C 166.010 33.936,165.121 34.244,164.308 34.400 C 163.495 34.557,162.355 34.889,161.774 35.139 C 161.193 35.389,160.338 35.747,159.873 35.935 C 159.409 36.123,157.930 36.763,156.587 37.357 C 155.245 37.951,153.878 38.437,153.550 38.437 C 153.222 38.437,152.847 38.611,152.715 38.823 C 152.584 39.035,151.719 39.337,150.792 39.493 C 149.865 39.650,149.000 39.951,148.869 40.163 C 148.737 40.376,148.353 40.549,148.013 40.549 C 147.674 40.549,146.643 41.024,145.723 41.605 C 144.803 42.186,143.667 42.661,143.197 42.661 C 142.728 42.661,142.344 42.851,142.344 43.083 C 142.344 43.316,141.880 43.506,141.313 43.506 C 140.746 43.506,140.178 43.675,140.050 43.881 C 139.922 44.088,139.293 44.385,138.652 44.541 C 138.011 44.697,136.822 45.249,136.008 45.769 C 135.195 46.289,133.675 46.978,132.629 47.301 C 131.584 47.624,129.743 48.328,128.538 48.865 C 127.333 49.402,126.145 49.842,125.898 49.842 C 125.651 49.842,125.449 50.032,125.449 50.264 C 125.449 50.496,125.021 50.687,124.498 50.687 C 123.976 50.687,123.029 51.115,122.395 51.637 C 119.471 54.045,117.481 55.333,116.686 55.333 C 116.209 55.333,114.800 55.869,113.555 56.524 C 110.857 57.943,109.808 58.315,107.286 58.746 C 106.241 58.925,103.865 59.380,102.006 59.758 C 100.148 60.136,97.582 60.616,96.304 60.825 C 88.022 62.180,86.111 62.505,83.844 62.948 C 77.731 64.143,73.683 65.256,69.905 66.780 C 68.574 67.317,56.432 69.694,55.021 69.694 C 54.321 69.694,52.927 69.984,51.921 70.339 C 50.668 70.781,49.754 70.866,49.017 70.609 C 48.294 70.357,47.317 70.433,46.040 70.842 C 44.995 71.176,43.035 71.526,41.684 71.620 C 40.334 71.713,38.367 72.083,37.314 72.440 C 32.116 74.205,24.861 75.607,20.927 75.607 C 18.345 75.607,16.208 75.851,14.904 76.293 C 13.720 76.695,11.136 77.029,8.659 77.098 C 6.336 77.164,4.055 77.349,3.590 77.509 C 3.126 77.669,2.508 77.871,2.218 77.958 C 1.927 78.044,1.690 78.492,1.690 78.954 C 1.690 79.950,3.140 80.309,6.969 80.264 C 18.323 80.128,25.754 79.920,26.822 79.706 C 27.518 79.567,29.419 79.149,31.045 78.777 C 33.961 78.110,36.646 77.656,42.450 76.850 C 45.279 76.458,48.644 75.795,57.445 73.897 C 59.652 73.421,62.313 73.021,63.358 73.007 C 64.403 72.993,66.304 72.725,67.582 72.410 C 68.860 72.095,70.665 71.653,71.595 71.427 C 72.524 71.201,74.900 70.607,76.874 70.107 C 81.646 68.898,88.924 67.153,91.024 66.714 C 93.708 66.153,95.784 65.608,100.496 64.226 C 103.169 63.443,105.860 62.936,107.344 62.936 C 108.785 62.936,111.139 62.504,113.078 61.885 C 117.708 60.406,117.951 60.438,116.956 62.391 C 116.516 63.254,116.155 64.537,116.153 65.242 C 116.151 65.981,115.357 67.914,114.282 69.796 C 113.254 71.595,112.281 73.496,112.118 74.020 C 111.956 74.545,111.405 75.829,110.894 76.874 C 110.246 78.201,109.995 79.413,110.063 80.887 C 110.116 82.049,110.179 83.494,110.202 84.098 C 110.297 86.649,114.550 90.405,116.289 89.474 C 116.817 89.192,116.927 88.909,116.643 88.566 C 116.416 88.292,116.007 86.832,115.734 85.322 C 115.461 83.812,115.037 82.334,114.792 82.038 C 113.430 80.393,114.906 75.256,117.679 71.997 C 120.168 69.069,121.358 66.203,121.086 63.780 C 120.849 61.663,121.590 59.652,123.200 58.042 C 123.740 57.502,124.182 56.605,124.182 56.049 C 124.182 55.176,124.862 54.706,129.145 52.623 C 131.874 51.295,135.628 49.438,137.487 48.495 C 141.584 46.417,141.525 46.442,146.779 44.572 C 149.102 43.745,151.763 42.703,152.693 42.256 C 155.581 40.866,157.468 40.184,162.127 38.844 C 164.604 38.131,168.152 37.010,170.011 36.352 C 171.869 35.694,174.340 34.825,175.502 34.420 C 179.680 32.964,183.149 32.025,185.639 31.677 C 187.033 31.482,189.409 31.008,190.919 30.622 C 192.429 30.237,194.815 29.846,196.222 29.754 C 197.629 29.661,200.575 29.087,202.769 28.478 C 205.091 27.834,208.700 27.229,211.404 27.030 C 213.960 26.842,218.237 26.178,220.908 25.555 C 223.580 24.933,226.621 24.249,227.666 24.037 C 228.712 23.824,230.422 23.372,231.468 23.031 C 232.513 22.690,234.794 22.013,236.536 21.528 C 238.279 21.043,240.719 20.277,241.959 19.826 C 243.200 19.376,244.546 19.007,244.951 19.007 C 245.356 19.007,247.452 18.441,249.607 17.748 C 252.406 16.848,255.023 16.366,258.764 16.063 C 261.644 15.829,265.472 15.231,267.270 14.735 C 274.658 12.696,286.749 12.133,289.165 13.716 C 290.666 14.699,291.268 17.251,290.651 20.009 C 290.372 21.257,290.046 22.824,289.927 23.493 C 289.311 26.952,280.876 32.193,273.073 33.964 C 271.688 34.279,266.881 35.664,264.203 36.520 C 263.273 36.817,261.658 37.292,260.612 37.575 C 259.567 37.857,258.141 38.354,257.445 38.678 C 255.376 39.640,248.300 41.905,246.251 42.261 C 245.206 42.442,243.495 42.813,242.450 43.084 C 241.404 43.355,240.197 43.648,239.767 43.736 C 239.337 43.824,238.766 44.060,238.500 44.260 C 238.233 44.460,237.350 44.663,236.536 44.712 C 235.723 44.760,234.995 44.984,234.917 45.209 C 234.840 45.434,234.473 45.618,234.102 45.618 C 233.325 45.618,231.115 46.288,228.814 47.222 C 227.935 47.579,226.890 47.864,226.491 47.856 C 226.092 47.848,225.427 48.137,225.013 48.497 C 224.317 49.103,224.084 48.979,221.927 46.857 C 219.825 44.790,218.759 43.298,216.051 38.634 C 215.586 37.834,214.731 36.990,214.150 36.759 C 213.569 36.527,212.770 36.104,212.375 35.818 C 210.710 34.616,212.011 40.372,213.731 41.816 C 214.387 42.368,215.016 43.388,216.892 46.944 C 217.122 47.380,217.597 47.830,217.948 47.942 C 218.298 48.055,218.940 48.679,219.374 49.329 C 219.809 49.979,220.813 50.937,221.607 51.458 C 222.401 51.978,223.265 52.873,223.526 53.446 C 223.787 54.019,224.122 54.488,224.271 54.488 C 224.732 54.488,229.654 57.792,230.866 58.915 C 231.497 59.500,232.280 59.979,232.606 59.979 C 233.339 59.979,235.655 61.131,236.617 61.973 C 237.275 62.549,237.158 62.771,235.138 64.787 C 233.933 65.991,232.413 67.581,231.762 68.321 C 230.720 69.504,228.487 70.529,226.937 70.536 C 226.652 70.537,226.095 71.061,225.698 71.700 C 224.489 73.650,222.903 75.185,222.096 75.185 C 221.675 75.185,221.331 75.375,221.331 75.607 C 221.331 75.839,221.045 76.030,220.697 76.030 C 220.348 76.030,220.063 76.338,220.063 76.716 C 220.063 77.253,219.788 77.347,218.798 77.149 C 217.896 76.969,216.961 77.200,215.541 77.955 C 214.148 78.696,213.195 78.936,212.371 78.755 C 210.822 78.415,210.884 78.943,212.586 80.593 C 214.049 82.011,214.752 82.191,216.348 81.558 C 216.881 81.346,218.458 80.739,219.852 80.209 C 225.626 78.013,236.536 69.477,236.536 67.156 C 236.536 66.056,240.267 64.567,241.473 65.185 C 242.126 65.521,244.087 66.103,245.829 66.478 C 247.571 66.854,250.028 67.445,251.289 67.790 C 252.867 68.222,254.776 68.356,257.414 68.219 C 263.132 67.923,263.273 68.389,258.923 73.205 C 256.094 76.337,255.056 77.235,253.299 78.067 C 252.327 78.527,250.260 79.731,248.706 80.740 C 247.152 81.750,244.618 83.337,243.075 84.266 C 241.532 85.195,239.952 86.255,239.564 86.620 C 239.177 86.985,238.255 87.701,237.516 88.212 C 235.394 89.677,233.471 92.338,233.795 93.361 C 234.338 95.072,237.626 93.827,241.013 90.627 C 242.106 89.595,243.589 88.516,244.309 88.228 C 245.029 87.941,246.283 87.195,247.096 86.570 C 247.909 85.946,249.014 85.298,249.552 85.130 C 250.090 84.963,251.688 83.692,253.103 82.307 C 254.519 80.922,256.499 79.307,257.504 78.718 C 259.077 77.796,259.903 76.948,262.509 73.578 C 262.744 73.275,263.506 72.402,264.203 71.639 C 264.900 70.875,266.217 69.185,267.130 67.884 C 268.043 66.582,269.283 65.152,269.886 64.706 C 270.489 64.260,271.909 62.491,273.042 60.775 C 274.174 59.060,275.738 56.982,276.517 56.158 C 277.879 54.718,280.435 50.272,281.080 48.220 C 281.597 46.573,285.159 41.776,286.224 41.291 C 286.773 41.041,287.223 40.680,287.223 40.490 C 287.223 39.213,291.860 38.042,292.736 39.098 C 293.066 39.495,293.648 39.667,294.194 39.530 C 296.615 38.923,297.489 43.712,295.459 46.463 C 294.903 47.217,294.320 48.428,294.163 49.155 C 293.701 51.299,291.004 56.663,290.475 56.487 C 290.208 56.398,289.678 57.206,289.299 58.282 C 288.920 59.358,287.918 61.224,287.072 62.428 C 286.226 63.632,285.533 64.740,285.533 64.891 C 285.533 65.042,284.963 66.092,284.266 67.225 C 283.569 68.357,282.999 69.762,282.999 70.346 C 282.999 70.977,282.133 72.523,280.865 74.157 C 279.691 75.669,278.347 77.802,277.878 78.897 C 277.409 79.991,276.775 81.172,276.469 81.521 C 276.164 81.869,275.475 83.580,274.938 85.322 C 274.401 87.064,273.665 88.870,273.302 89.335 C 272.939 89.799,272.283 90.889,271.845 91.756 C 271.406 92.623,270.505 93.572,269.843 93.865 C 269.180 94.158,268.638 94.528,268.638 94.687 C 268.638 94.845,268.115 95.245,267.476 95.575 C 264.877 96.919,258.586 100.696,256.722 102.033 C 255.628 102.818,254.107 103.727,253.343 104.055 C 252.579 104.382,251.017 105.640,249.872 106.849 C 248.726 108.059,247.111 109.551,246.281 110.165 C 245.452 110.780,244.378 111.667,243.895 112.136 C 242.879 113.122,241.233 114.467,241.042 114.467 C 240.970 114.467,240.001 115.339,238.888 116.405 C 236.526 118.669,236.709 119.791,239.245 118.582 C 240.505 117.981,240.761 117.971,241.201 118.502 C 241.972 119.430,242.383 119.269,244.287 117.292 C 245.251 116.290,246.705 115.015,247.518 114.458 C 248.332 113.901,249.271 113.057,249.606 112.583 C 250.846 110.827,256.118 105.607,257.809 104.461 C 258.770 103.809,259.656 103.143,259.778 102.981 C 260.227 102.385,266.870 99.261,267.689 99.261 C 270.587 99.261,275.396 95.492,275.396 93.221 C 275.396 92.973,275.751 91.997,276.185 91.052 C 276.620 90.108,277.213 88.717,277.504 87.962 C 277.982 86.720,278.200 86.589,279.777 86.589 C 280.736 86.588,283.136 86.283,285.111 85.911 C 289.733 85.039,290.631 84.921,294.170 84.720 C 296.218 84.604,297.253 84.350,297.596 83.882 C 297.866 83.512,298.303 83.210,298.568 83.210 C 298.833 83.210,299.050 83.050,299.050 82.854 C 299.050 82.189,302.626 78.926,305.415 77.045 C 307.154 75.873,308.446 74.640,308.873 73.744 C 309.396 72.646,310.269 71.956,312.632 70.774 C 317.230 68.474,318.571 67.282,324.073 60.601 C 325.991 58.271,327.799 56.085,328.090 55.743 C 328.381 55.401,329.319 54.076,330.173 52.798 C 331.027 51.521,332.670 49.339,333.823 47.950 C 334.977 46.562,336.161 44.851,336.456 44.149 C 337.908 40.682,343.402 38.304,345.135 40.392 C 345.789 41.180,345.381 45.370,344.461 47.307 C 342.148 52.181,339.966 56.177,339.619 56.177 C 338.932 56.177,338.457 58.090,338.857 59.243 C 339.196 60.221,339.110 60.531,338.321 61.170 C 337.773 61.614,337.268 62.627,337.113 63.595 C 336.926 64.759,336.561 65.384,335.899 65.676 C 335.013 66.066,334.895 66.316,334.784 68.042 C 334.761 68.411,334.533 68.981,334.279 69.309 C 334.025 69.637,333.684 70.190,333.523 70.539 C 332.642 72.442,330.358 75.652,329.373 76.370 C 328.957 76.674,328.617 77.163,328.617 77.458 C 328.617 77.752,327.429 79.142,325.977 80.546 C 323.130 83.299,320.605 86.185,320.597 86.695 C 320.594 86.869,320.341 87.012,320.036 87.012 C 319.730 87.012,319.052 87.772,318.530 88.701 C 317.688 90.200,317.169 90.631,316.623 90.285 C 316.342 90.107,314.706 91.736,314.800 92.100 C 314.849 92.288,313.916 93.555,312.726 94.916 C 311.537 96.277,310.164 98.174,309.675 99.132 C 309.186 100.090,307.661 102.038,306.286 103.461 C 304.911 104.884,303.562 106.591,303.287 107.254 C 302.742 108.570,301.582 108.976,298.363 108.976 C 297.347 108.976,296.515 109.148,296.515 109.358 C 296.515 109.568,295.751 109.638,294.816 109.512 C 293.554 109.343,292.907 109.475,292.298 110.026 C 291.603 110.654,291.008 110.723,288.389 110.478 C 286.143 110.268,284.785 110.358,283.410 110.810 C 280.812 111.665,277.329 112.355,275.611 112.355 C 274.823 112.355,274.061 112.545,273.918 112.777 C 273.774 113.010,272.765 113.204,271.675 113.210 C 270.585 113.216,268.933 113.395,268.004 113.609 C 267.075 113.823,265.649 114.112,264.836 114.251 C 264.023 114.390,262.598 114.715,261.668 114.974 C 260.739 115.232,259.361 115.399,258.606 115.345 C 257.851 115.291,257.233 115.436,257.233 115.666 C 257.233 115.897,255.909 116.496,254.290 116.997 C 252.671 117.498,250.667 118.369,249.836 118.933 C 249.005 119.497,247.965 119.958,247.525 119.958 C 247.084 119.958,246.606 120.148,246.463 120.380 C 246.319 120.612,245.776 120.803,245.255 120.803 C 244.734 120.803,244.128 120.959,243.907 121.150 C 243.686 121.342,242.365 121.841,240.971 122.259 C 239.578 122.678,237.107 123.471,235.480 124.021 C 233.854 124.571,231.842 124.993,231.010 124.958 C 230.177 124.923,228.846 125.219,228.053 125.616 C 226.079 126.602,223.290 126.927,221.414 126.388 C 216.697 125.033,208.387 122.333,208.002 122.031 C 207.757 121.838,206.141 121.472,204.412 121.217 C 202.682 120.962,200.551 120.480,199.675 120.145 C 198.799 119.810,197.008 119.535,195.695 119.535 C 194.111 119.535,193.060 119.311,192.570 118.867 C 192.048 118.395,190.695 118.145,187.958 118.017 C 185.827 117.917,183.769 117.669,183.383 117.466 C 182.998 117.264,181.447 116.958,179.937 116.786 C 178.427 116.614,176.784 116.320,176.287 116.132 C 175.789 115.944,173.128 115.468,170.373 115.075 C 167.618 114.682,165.168 114.205,164.927 114.015 C 163.649 113.004,149.909 112.236,149.348 113.144 C 149.223 113.346,147.776 113.414,146.131 113.297 C 144.143 113.154,142.805 113.262,142.139 113.619 C 141.589 113.913,140.602 114.052,139.946 113.927 C 139.291 113.801,138.279 113.950,137.698 114.257 C 135.403 115.471,132.732 116.487,130.517 116.990 C 129.240 117.280,127.566 117.876,126.797 118.315 C 126.029 118.754,125.139 119.113,124.820 119.113 C 124.500 119.113,123.867 119.636,123.412 120.275 C 122.897 120.998,121.849 121.653,120.634 122.012 C 119.561 122.328,118.257 122.919,117.737 123.323 C 117.216 123.728,116.030 124.297,115.100 124.589 C 114.171 124.881,113.221 125.347,112.988 125.625 C 112.756 125.903,111.664 126.564,110.562 127.094 C 109.460 127.623,108.462 128.212,108.344 128.402 C 108.227 128.592,107.418 128.655,106.547 128.543 C 105.676 128.430,103.157 128.517,100.950 128.735 C 98.743 128.954,95.729 129.007,94.252 128.855 C 92.347 128.658,91.510 128.722,91.373 129.078 C 91.180 129.581,87.982 129.552,82.154 128.995 C 79.146 128.708,80.024 128.672,71.383 129.440 C 61.132 130.351,55.422 131.381,42.872 134.584 C 41.478 134.940,39.749 135.301,39.030 135.386 C 38.311 135.471,36.695 135.931,35.440 136.408 C 34.184 136.885,30.876 137.677,28.089 138.169 C 25.301 138.661,22.698 139.232,22.303 139.439 C 21.909 139.646,18.678 140.375,15.123 141.058 C 7.558 142.513,0.844 144.480,0.254 145.416 C -0.919 147.274,2.793 148.030,6.931 146.775 C 8.071 146.429,9.628 146.146,10.391 146.146 C 11.153 146.146,11.894 145.956,12.038 145.723 C 12.182 145.491,12.684 145.301,13.155 145.301 C 13.626 145.301,15.373 144.939,17.038 144.497 C 21.295 143.366,23.512 142.804,26.188 142.177 C 27.466 141.878,29.842 141.233,31.468 140.745 C 33.094 140.256,35.565 139.617,36.959 139.324 C 38.353 139.031,39.968 138.547,40.549 138.247 C 41.130 137.948,42.090 137.702,42.682 137.701 C 43.275 137.699,43.940 137.530,44.161 137.325 C 44.834 136.700,61.712 134.170,65.892 134.068 C 67.402 134.031,71.204 133.774,74.340 133.497 C 77.476 133.220,83.749 133.029,88.279 133.073 C 92.809 133.116,97.798 133.139,99.366 133.124 C 100.935 133.108,102.455 133.113,102.746 133.135 C 103.036 133.157,104.699 132.777,106.441 132.291 C 108.184 131.806,110.845 131.192,112.355 130.929 C 113.865 130.665,116.051 129.914,117.212 129.260 C 118.374 128.605,120.465 127.726,121.859 127.306 C 123.252 126.886,124.981 126.042,125.701 125.432 C 126.420 124.821,128.036 123.988,129.291 123.580 C 130.546 123.172,132.178 122.381,132.917 121.821 C 134.521 120.607,136.115 119.960,138.120 119.712 C 138.933 119.611,140.454 119.261,141.499 118.935 C 145.674 117.634,147.202 117.525,155.861 117.911 C 160.623 118.124,164.995 118.358,165.576 118.432 C 166.156 118.506,168.247 118.707,170.222 118.879 C 172.495 119.077,174.325 119.487,175.209 119.997 C 175.977 120.440,177.213 120.804,177.954 120.805 C 178.696 120.807,179.873 121.118,180.570 121.497 C 181.267 121.877,182.360 122.158,182.999 122.122 C 183.638 122.086,184.161 122.249,184.161 122.485 C 184.161 122.721,184.362 122.914,184.608 122.914 C 184.854 122.914,184.938 122.724,184.794 122.492 C 184.400 121.855,185.899 121.990,187.294 122.718 C 187.971 123.071,190.347 123.664,192.573 124.035 C 194.800 124.406,197.220 124.971,197.952 125.290 C 198.684 125.610,199.944 125.871,200.751 125.871 C 201.559 125.871,202.956 126.182,203.855 126.562 C 204.755 126.941,206.443 127.297,207.607 127.352 C 210.665 127.497,213.348 127.997,214.657 128.667 C 215.284 128.988,216.239 129.250,216.779 129.250 C 217.318 129.250,219.633 129.725,221.922 130.306 C 227.245 131.656,228.299 131.656,229.184 130.306 C 229.607 129.660,230.273 129.250,230.900 129.250 C 231.464 129.250,233.200 128.862,234.759 128.388 C 242.399 126.063,251.688 123.479,254.065 123.017 C 258.488 122.157,261.707 121.109,262.724 120.197 C 263.743 119.285,270.069 117.423,272.152 117.423 C 272.673 117.423,274.139 117.130,275.410 116.772 C 279.332 115.665,283.102 114.991,285.648 114.941 C 286.989 114.914,289.486 114.603,291.198 114.250 C 293.598 113.754,294.586 113.715,295.518 114.080 C 296.183 114.341,297.772 114.615,299.050 114.690 C 302.003 114.863,304.351 115.170,306.600 115.675 C 307.999 115.989,308.665 115.928,309.732 115.385 C 310.613 114.937,312.642 114.619,315.523 114.476 C 320.409 114.233,326.082 112.154,326.082 110.605 C 326.082 109.769,326.931 109.398,328.848 109.398 C 329.710 109.398,331.069 108.896,332.275 108.131 C 333.374 107.434,334.439 106.864,334.642 106.864 C 334.845 106.864,335.840 106.294,336.853 105.597 C 337.866 104.900,338.836 104.329,339.008 104.329 C 339.417 104.329,344.254 102.408,347.159 101.092 C 348.414 100.524,349.978 99.952,350.635 99.820 C 351.292 99.689,352.047 99.319,352.313 98.999 C 352.579 98.678,353.091 98.416,353.450 98.416 C 353.810 98.416,354.405 98.170,354.771 97.870 C 355.138 97.570,356.579 96.956,357.973 96.506 C 361.157 95.476,365.312 93.351,368.480 91.130 C 369.392 90.491,370.397 89.968,370.715 89.968 C 371.033 89.968,372.193 89.503,373.292 88.933 C 374.391 88.364,375.766 87.699,376.346 87.456 C 376.927 87.213,377.687 86.844,378.036 86.637 C 378.872 86.139,381.217 85.127,383.316 84.358 C 384.245 84.018,386.431 83.145,388.173 82.418 C 389.916 81.691,391.636 81.097,391.996 81.097 C 392.356 81.098,392.863 80.886,393.122 80.627 C 393.381 80.368,394.037 79.939,394.579 79.675 C 398.623 77.703,397.580 70.070,392.763 66.382 C 391.271 65.239,381.330 64.958,376.239 65.915 C 372.944 66.534,372.675 66.416,373.543 64.737 C 375.008 61.904,374.380 56.971,372.477 56.367 C 372.050 56.231,371.700 55.935,371.700 55.709 C 371.700 55.093,370.386 53.857,368.955 53.127 C 368.258 52.772,367.108 52.178,366.400 51.807 C 364.096 50.599,357.265 50.557,354.878 51.735 C 347.776 55.239,346.647 55.764,346.510 55.626 C 346.240 55.357,348.577 49.419,348.952 49.419 C 349.151 49.419,349.314 49.050,349.314 48.598 C 349.314 48.147,349.680 47.521,350.129 47.207 C 350.577 46.893,351.068 46.140,351.220 45.533 C 351.372 44.927,351.956 43.999,352.517 43.472 C 354.643 41.475,353.372 38.523,349.736 37.015 C 348.691 36.581,346.882 35.773,345.717 35.220 C 344.280 34.537,342.854 34.214,341.282 34.216 L 338.965 34.219 335.480 37.635 C 333.564 39.514,331.996 41.289,331.996 41.580 C 331.996 41.870,331.616 42.452,331.151 42.872 C 330.686 43.293,330.306 43.886,330.306 44.190 C 330.306 44.495,329.736 45.393,329.039 46.187 C 328.342 46.981,327.773 47.795,327.774 47.997 C 327.775 48.198,326.682 49.434,325.345 50.742 C 321.439 54.565,319.747 56.412,319.747 56.848 C 319.747 57.548,317.536 59.682,314.598 61.819 C 313.046 62.947,311.675 64.135,311.551 64.459 C 311.427 64.783,311.040 65.048,310.692 65.048 C 310.109 65.048,307.642 66.129,305.597 67.281 C 305.132 67.543,303.117 67.784,301.119 67.817 C 299.121 67.850,297.315 67.965,297.106 68.072 C 296.119 68.582,288.912 67.909,288.912 67.308 C 288.912 66.290,290.200 64.093,291.860 62.277 C 293.663 60.304,296.189 55.896,296.928 53.432 C 297.206 52.503,297.797 50.937,298.242 49.952 C 298.816 48.680,299.050 47.205,299.050 44.862 C 299.050 43.047,299.248 41.364,299.491 41.121 C 300.467 40.145,300.180 37.181,299.050 36.569 C 295.500 34.647,294.977 34.511,291.943 34.728 C 288.857 34.949,288.109 35.313,285.060 38.070 C 284.451 38.620,283.596 39.391,283.159 39.782 C 282.723 40.173,281.795 41.276,281.098 42.233 C 280.401 43.190,279.335 44.580,278.728 45.323 C 278.121 46.066,277.332 47.244,276.974 47.941 C 276.616 48.638,275.734 49.968,275.014 50.898 C 274.293 51.827,273.419 52.958,273.072 53.412 C 272.724 53.866,272.439 54.674,272.439 55.207 C 272.439 55.741,272.273 56.177,272.070 56.177 C 271.867 56.177,271.059 57.446,270.275 58.997 C 269.491 60.547,268.659 62.170,268.427 62.602 C 268.077 63.254,267.569 63.372,265.470 63.293 C 264.076 63.241,261.225 63.350,259.134 63.536 C 256.272 63.790,254.367 63.706,251.425 63.194 C 249.276 62.819,246.959 62.513,246.276 62.513 C 245.593 62.513,244.917 62.323,244.773 62.091 C 244.629 61.859,244.167 61.668,243.746 61.668 C 241.677 61.668,238.281 59.484,237.670 57.761 C 237.382 56.951,236.273 56.755,236.034 57.473 C 235.843 58.046,231.084 55.391,230.454 54.361 C 229.154 52.232,244.351 44.710,246.443 46.447 C 246.735 46.689,247.846 46.450,249.431 45.805 C 250.818 45.239,252.197 44.776,252.496 44.775 C 252.794 44.774,254.014 44.278,255.207 43.673 C 256.766 42.884,257.772 42.638,258.779 42.801 C 259.876 42.979,260.313 42.840,260.788 42.161 C 261.291 41.443,261.968 41.262,264.700 41.113 C 269.323 40.862,276.743 38.827,282.628 36.198 C 283.469 35.822,285.168 34.652,286.404 33.597 C 287.640 32.542,288.792 31.679,288.966 31.679 C 289.703 31.679,294.531 25.177,294.867 23.730 C 296.300 17.563,293.846 11.568,289.335 10.213 C 284.528 8.768,283.198 8.544,278.986 8.470 C 276.431 8.425,272.724 8.328,270.750 8.255 C 268.772 8.182,266.159 8.366,264.932 8.664 M367.524 57.100 C 370.073 58.532,369.837 59.816,366.420 63.101 C 364.910 64.552,363.675 65.972,363.675 66.256 C 363.675 67.041,361.882 69.316,360.929 69.739 C 360.465 69.945,359.799 70.289,359.451 70.502 C 358.517 71.073,354.335 72.905,353.115 73.277 C 352.534 73.454,350.824 74.179,349.314 74.887 C 347.628 75.678,345.957 76.156,344.984 76.125 C 344.113 76.097,343.400 76.215,343.400 76.387 C 343.400 76.559,342.402 77.021,341.183 77.414 C 335.148 79.360,333.466 79.831,332.560 79.831 C 332.017 79.831,331.573 80.021,331.573 80.253 C 331.573 80.486,331.348 80.676,331.072 80.676 C 330.796 80.676,331.081 80.143,331.706 79.491 C 332.330 78.840,332.841 78.178,332.841 78.021 C 332.841 77.675,334.917 74.524,338.328 69.694 C 339.722 67.719,340.864 65.693,340.865 65.191 C 340.867 63.142,342.979 60.824,344.848 60.819 C 346.767 60.813,351.603 59.671,355.399 58.328 C 356.771 57.842,358.292 57.438,358.778 57.430 C 359.264 57.421,360.137 57.143,360.718 56.811 C 362.339 55.885,365.609 56.023,367.524 57.100 M387.862 68.955 C 388.382 69.245,389.555 70.050,390.470 70.743 C 391.385 71.436,392.430 72.006,392.793 72.010 C 393.891 72.022,393.798 73.798,392.620 75.343 C 391.513 76.795,390.816 77.166,387.328 78.166 C 386.283 78.466,385.247 78.868,385.026 79.060 C 384.806 79.252,384.211 79.409,383.705 79.409 C 383.199 79.409,382.571 79.667,382.310 79.982 C 382.048 80.298,380.361 81.264,378.562 82.130 C 374.595 84.039,375.070 83.798,369.377 86.788 C 366.822 88.130,364.226 89.585,363.610 90.021 C 362.993 90.457,362.158 90.813,361.755 90.813 C 361.352 90.813,360.241 91.180,359.286 91.628 C 354.150 94.040,351.777 95.037,351.173 95.037 C 350.803 95.037,349.995 95.299,349.379 95.619 C 348.762 95.939,347.782 96.392,347.202 96.625 C 346.621 96.858,345.005 97.620,343.611 98.318 C 342.218 99.016,340.602 99.730,340.021 99.905 C 339.440 100.080,337.839 100.766,336.462 101.431 C 335.085 102.096,333.699 102.640,333.382 102.640 C 333.065 102.640,331.626 102.994,330.183 103.427 C 328.741 103.860,326.800 104.406,325.871 104.640 C 324.942 104.874,322.566 105.675,320.591 106.421 C 318.617 107.166,315.861 107.863,314.467 107.970 C 313.073 108.076,311.457 108.285,310.876 108.433 C 307.201 109.370,306.941 108.757,309.461 105.093 C 310.588 103.453,311.795 101.654,312.144 101.095 C 312.492 100.536,313.191 99.972,313.696 99.842 C 314.908 99.532,315.611 98.695,317.073 95.820 C 319.473 91.100,324.795 85.322,326.743 85.322 C 327.503 85.322,329.043 84.865,330.166 84.307 C 332.515 83.139,342.722 80.510,343.807 80.794 C 344.218 80.902,344.748 80.644,345.024 80.202 C 345.302 79.757,346.240 79.302,347.194 79.150 C 348.119 79.002,349.092 78.619,349.357 78.300 C 349.623 77.981,350.086 77.719,350.388 77.719 C 350.689 77.719,352.234 77.078,353.821 76.295 C 355.407 75.512,357.846 74.546,359.240 74.149 C 360.634 73.752,362.325 73.252,362.999 73.038 C 363.672 72.825,364.718 72.648,365.322 72.645 C 365.926 72.642,367.901 72.167,369.710 71.589 C 371.620 70.979,374.011 70.538,375.412 70.536 C 377.235 70.535,378.238 70.280,379.514 69.494 C 381.439 68.308,386.160 68.003,387.862 68.955 M304.013 72.239 C 304.925 72.220,304.588 73.367,303.465 74.103 C 302.874 74.490,302.161 75.317,301.882 75.941 C 300.202 79.682,287.636 84.048,283.295 82.398 L 282.187 81.976 283.169 79.320 C 283.709 77.859,284.443 75.903,284.801 74.974 C 285.158 74.044,285.556 72.957,285.685 72.557 C 285.900 71.891,286.656 71.847,294.702 72.040 C 299.533 72.156,303.722 72.246,304.013 72.239 M240.127 75.185 C 239.706 75.649,239.140 76.030,238.868 76.030 C 238.596 76.030,237.927 76.505,237.381 77.086 C 236.836 77.666,236.052 78.141,235.640 78.141 C 235.229 78.141,233.636 79.092,232.101 80.253 C 230.567 81.415,228.957 82.365,228.523 82.365 C 227.251 82.365,226.399 82.831,226.399 83.526 C 226.399 84.313,225.468 85.094,223.231 86.183 C 222.302 86.636,220.686 87.660,219.641 88.459 C 218.163 89.589,217.325 89.918,215.873 89.940 C 214.759 89.957,213.692 90.252,213.230 90.670 C 212.803 91.056,212.040 91.579,211.534 91.832 C 210.919 92.139,210.558 92.781,210.446 93.769 C 210.353 94.582,210.082 95.482,209.843 95.770 C 209.039 96.740,209.799 97.817,210.707 96.995 C 211.127 96.615,211.776 96.304,212.148 96.304 C 212.521 96.304,213.231 95.734,213.728 95.037 C 214.224 94.340,214.860 93.770,215.141 93.770 C 215.422 93.770,215.977 93.390,216.375 92.925 C 216.773 92.460,217.393 92.080,217.753 92.080 C 218.392 92.080,219.945 91.113,222.272 89.264 C 222.906 88.760,224.617 87.752,226.073 87.022 C 227.530 86.293,229.483 85.238,230.412 84.678 C 231.341 84.118,232.862 83.266,233.791 82.785 C 235.649 81.822,242.450 75.559,242.450 74.810 C 242.450 74.036,240.947 74.279,240.127 75.185 " stroke="none" fill="#000000" fill-rule="evenodd"></path></g></svg>